<mxfile host="app.diagrams.net" agent="Mozilla/5.0 (Windows NT 10.0; Win64; x64) AppleWebKit/537.36 (KHTML, like Gecko) Chrome/131.0.0.0 Safari/537.36" version="25.0.3">
  <diagram name="Page-1" id="YWrMl2HOsH3CLGb1ybmI">
    <mxGraphModel dx="1185" dy="1285" grid="1" gridSize="10" guides="1" tooltips="1" connect="1" arrows="1" fold="1" page="1" pageScale="1" pageWidth="850" pageHeight="1100" math="0" shadow="0">
      <root>
        <mxCell id="0" />
        <mxCell id="1" parent="0" />
        <mxCell id="ybxK3nhDi52jIhjer_VF-2" value="Quản lí sản phẩm" style="ellipse;whiteSpace=wrap;html=1;" vertex="1" parent="1">
          <mxGeometry x="240" y="360" width="120" height="80" as="geometry" />
        </mxCell>
        <mxCell id="ybxK3nhDi52jIhjer_VF-7" style="edgeStyle=orthogonalEdgeStyle;rounded=0;orthogonalLoop=1;jettySize=auto;html=1;entryX=0;entryY=0.5;entryDx=0;entryDy=0;" edge="1" parent="1" source="ybxK3nhDi52jIhjer_VF-4" target="ybxK3nhDi52jIhjer_VF-2">
          <mxGeometry relative="1" as="geometry" />
        </mxCell>
        <mxCell id="ybxK3nhDi52jIhjer_VF-4" value="Nhân viên&lt;div&gt;bán hàng&lt;/div&gt;" style="shape=umlActor;verticalLabelPosition=bottom;verticalAlign=top;html=1;outlineConnect=0;" vertex="1" parent="1">
          <mxGeometry x="100" y="370" width="30" height="60" as="geometry" />
        </mxCell>
        <mxCell id="ybxK3nhDi52jIhjer_VF-8" value="Thêm sản phẩm" style="ellipse;whiteSpace=wrap;html=1;" vertex="1" parent="1">
          <mxGeometry x="240" y="200" width="120" height="80" as="geometry" />
        </mxCell>
        <mxCell id="ybxK3nhDi52jIhjer_VF-9" value="Tìm kiếm thông tin sản phẩm" style="ellipse;whiteSpace=wrap;html=1;" vertex="1" parent="1">
          <mxGeometry x="400" y="240" width="120" height="80" as="geometry" />
        </mxCell>
        <mxCell id="ybxK3nhDi52jIhjer_VF-10" value="Cập nhật thông tin sản phẩm" style="ellipse;whiteSpace=wrap;html=1;" vertex="1" parent="1">
          <mxGeometry x="400" y="480" width="120" height="80" as="geometry" />
        </mxCell>
        <mxCell id="ybxK3nhDi52jIhjer_VF-11" value="Xem thông tin sản phẩm" style="ellipse;whiteSpace=wrap;html=1;" vertex="1" parent="1">
          <mxGeometry x="440" y="360" width="120" height="80" as="geometry" />
        </mxCell>
        <mxCell id="ybxK3nhDi52jIhjer_VF-12" value="Xóa sản phẩm" style="ellipse;whiteSpace=wrap;html=1;" vertex="1" parent="1">
          <mxGeometry x="240" y="520" width="120" height="80" as="geometry" />
        </mxCell>
        <mxCell id="ybxK3nhDi52jIhjer_VF-13" value="&amp;lt;&amp;lt;extend&amp;gt;&amp;gt;" style="html=1;verticalAlign=bottom;labelBackgroundColor=none;endArrow=open;endFill=0;dashed=1;rounded=0;exitX=0.5;exitY=1;exitDx=0;exitDy=0;" edge="1" parent="1" source="ybxK3nhDi52jIhjer_VF-8" target="ybxK3nhDi52jIhjer_VF-2">
          <mxGeometry width="160" relative="1" as="geometry">
            <mxPoint x="290" y="400" as="sourcePoint" />
            <mxPoint x="450" y="400" as="targetPoint" />
          </mxGeometry>
        </mxCell>
        <mxCell id="ybxK3nhDi52jIhjer_VF-14" value="&amp;lt;&amp;lt;extend&amp;gt;&amp;gt;" style="html=1;verticalAlign=bottom;labelBackgroundColor=none;endArrow=open;endFill=0;dashed=1;rounded=0;exitX=0.5;exitY=0;exitDx=0;exitDy=0;entryX=0.5;entryY=1;entryDx=0;entryDy=0;" edge="1" parent="1" source="ybxK3nhDi52jIhjer_VF-12" target="ybxK3nhDi52jIhjer_VF-2">
          <mxGeometry width="160" relative="1" as="geometry">
            <mxPoint x="310" y="290" as="sourcePoint" />
            <mxPoint x="310" y="370" as="targetPoint" />
          </mxGeometry>
        </mxCell>
        <mxCell id="ybxK3nhDi52jIhjer_VF-15" value="&amp;lt;&amp;lt;extend&amp;gt;&amp;gt;" style="html=1;verticalAlign=bottom;labelBackgroundColor=none;endArrow=open;endFill=0;dashed=1;rounded=0;exitX=0;exitY=1;exitDx=0;exitDy=0;entryX=1;entryY=0;entryDx=0;entryDy=0;" edge="1" parent="1" source="ybxK3nhDi52jIhjer_VF-9" target="ybxK3nhDi52jIhjer_VF-2">
          <mxGeometry width="160" relative="1" as="geometry">
            <mxPoint x="310" y="290" as="sourcePoint" />
            <mxPoint x="310" y="370" as="targetPoint" />
          </mxGeometry>
        </mxCell>
        <mxCell id="ybxK3nhDi52jIhjer_VF-16" value="&amp;lt;&amp;lt;extend&amp;gt;&amp;gt;" style="html=1;verticalAlign=bottom;labelBackgroundColor=none;endArrow=open;endFill=0;dashed=1;rounded=0;exitX=0;exitY=0.5;exitDx=0;exitDy=0;entryX=1;entryY=1;entryDx=0;entryDy=0;" edge="1" parent="1" source="ybxK3nhDi52jIhjer_VF-10" target="ybxK3nhDi52jIhjer_VF-2">
          <mxGeometry width="160" relative="1" as="geometry">
            <mxPoint x="428" y="318" as="sourcePoint" />
            <mxPoint x="352" y="382" as="targetPoint" />
          </mxGeometry>
        </mxCell>
        <mxCell id="ybxK3nhDi52jIhjer_VF-17" value="&amp;lt;&amp;lt;extend&amp;gt;&amp;gt;" style="html=1;verticalAlign=bottom;labelBackgroundColor=none;endArrow=open;endFill=0;dashed=1;rounded=0;exitX=0;exitY=0.5;exitDx=0;exitDy=0;entryX=1;entryY=0.5;entryDx=0;entryDy=0;" edge="1" parent="1" source="ybxK3nhDi52jIhjer_VF-11" target="ybxK3nhDi52jIhjer_VF-2">
          <mxGeometry width="160" relative="1" as="geometry">
            <mxPoint x="428" y="318" as="sourcePoint" />
            <mxPoint x="352" y="382" as="targetPoint" />
          </mxGeometry>
        </mxCell>
        <mxCell id="ybxK3nhDi52jIhjer_VF-18" value="Quản lí khách hàng" style="ellipse;whiteSpace=wrap;html=1;" vertex="1" parent="1">
          <mxGeometry x="250" y="810" width="120" height="80" as="geometry" />
        </mxCell>
        <mxCell id="ybxK3nhDi52jIhjer_VF-19" style="edgeStyle=orthogonalEdgeStyle;rounded=0;orthogonalLoop=1;jettySize=auto;html=1;entryX=0;entryY=0.5;entryDx=0;entryDy=0;" edge="1" parent="1" source="ybxK3nhDi52jIhjer_VF-20" target="ybxK3nhDi52jIhjer_VF-18">
          <mxGeometry relative="1" as="geometry" />
        </mxCell>
        <mxCell id="ybxK3nhDi52jIhjer_VF-20" value="Nhân viên&lt;div&gt;bán hàng&lt;/div&gt;" style="shape=umlActor;verticalLabelPosition=bottom;verticalAlign=top;html=1;outlineConnect=0;" vertex="1" parent="1">
          <mxGeometry x="110" y="820" width="30" height="60" as="geometry" />
        </mxCell>
        <mxCell id="ybxK3nhDi52jIhjer_VF-22" value="Xem thông tin&amp;nbsp;&lt;div&gt;khách hàng&lt;/div&gt;" style="ellipse;whiteSpace=wrap;html=1;" vertex="1" parent="1">
          <mxGeometry x="400" y="720" width="120" height="80" as="geometry" />
        </mxCell>
        <mxCell id="ybxK3nhDi52jIhjer_VF-24" value="Chăm sóc khách hàng" style="ellipse;whiteSpace=wrap;html=1;" vertex="1" parent="1">
          <mxGeometry x="400" y="880" width="120" height="80" as="geometry" />
        </mxCell>
        <mxCell id="ybxK3nhDi52jIhjer_VF-28" value="&amp;lt;&amp;lt;extend&amp;gt;&amp;gt;" style="html=1;verticalAlign=bottom;labelBackgroundColor=none;endArrow=open;endFill=0;dashed=1;rounded=0;exitX=0;exitY=1;exitDx=0;exitDy=0;entryX=1;entryY=0;entryDx=0;entryDy=0;" edge="1" parent="1" source="ybxK3nhDi52jIhjer_VF-22" target="ybxK3nhDi52jIhjer_VF-18">
          <mxGeometry width="160" relative="1" as="geometry">
            <mxPoint x="320" y="740" as="sourcePoint" />
            <mxPoint x="320" y="820" as="targetPoint" />
          </mxGeometry>
        </mxCell>
        <mxCell id="ybxK3nhDi52jIhjer_VF-30" value="&amp;lt;&amp;lt;extend&amp;gt;&amp;gt;" style="html=1;verticalAlign=bottom;labelBackgroundColor=none;endArrow=open;endFill=0;dashed=1;rounded=0;exitX=0;exitY=0;exitDx=0;exitDy=0;entryX=1;entryY=1;entryDx=0;entryDy=0;" edge="1" parent="1" source="ybxK3nhDi52jIhjer_VF-24" target="ybxK3nhDi52jIhjer_VF-18">
          <mxGeometry width="160" relative="1" as="geometry">
            <mxPoint x="438" y="768" as="sourcePoint" />
            <mxPoint x="362" y="832" as="targetPoint" />
          </mxGeometry>
        </mxCell>
        <mxCell id="ybxK3nhDi52jIhjer_VF-33" value="Tư vấn sản phẩm" style="ellipse;whiteSpace=wrap;html=1;" vertex="1" parent="1">
          <mxGeometry x="560" y="810" width="120" height="80" as="geometry" />
        </mxCell>
        <mxCell id="ybxK3nhDi52jIhjer_VF-34" value="Giải đáp thắc mắc" style="ellipse;whiteSpace=wrap;html=1;" vertex="1" parent="1">
          <mxGeometry x="560" y="960" width="120" height="80" as="geometry" />
        </mxCell>
        <mxCell id="ybxK3nhDi52jIhjer_VF-36" value="&amp;lt;&amp;lt;extend&amp;gt;&amp;gt;" style="html=1;verticalAlign=bottom;labelBackgroundColor=none;endArrow=open;endFill=0;dashed=1;rounded=0;exitX=0;exitY=1;exitDx=0;exitDy=0;entryX=1;entryY=0;entryDx=0;entryDy=0;" edge="1" parent="1" source="ybxK3nhDi52jIhjer_VF-33" target="ybxK3nhDi52jIhjer_VF-24">
          <mxGeometry width="160" relative="1" as="geometry">
            <mxPoint x="428" y="902" as="sourcePoint" />
            <mxPoint x="362" y="888" as="targetPoint" />
          </mxGeometry>
        </mxCell>
        <mxCell id="ybxK3nhDi52jIhjer_VF-37" value="&amp;lt;&amp;lt;extend&amp;gt;&amp;gt;" style="html=1;verticalAlign=bottom;labelBackgroundColor=none;endArrow=open;endFill=0;dashed=1;rounded=0;exitX=0;exitY=0;exitDx=0;exitDy=0;entryX=1;entryY=1;entryDx=0;entryDy=0;" edge="1" parent="1" source="ybxK3nhDi52jIhjer_VF-34" target="ybxK3nhDi52jIhjer_VF-24">
          <mxGeometry width="160" relative="1" as="geometry">
            <mxPoint x="570" y="860" as="sourcePoint" />
            <mxPoint x="512" y="902" as="targetPoint" />
          </mxGeometry>
        </mxCell>
        <mxCell id="ybxK3nhDi52jIhjer_VF-38" value="Quản lí đơn hàng" style="ellipse;whiteSpace=wrap;html=1;" vertex="1" parent="1">
          <mxGeometry x="800" y="360" width="120" height="80" as="geometry" />
        </mxCell>
        <mxCell id="ybxK3nhDi52jIhjer_VF-39" style="edgeStyle=orthogonalEdgeStyle;rounded=0;orthogonalLoop=1;jettySize=auto;html=1;entryX=0;entryY=0.5;entryDx=0;entryDy=0;" edge="1" parent="1" source="ybxK3nhDi52jIhjer_VF-40" target="ybxK3nhDi52jIhjer_VF-38">
          <mxGeometry relative="1" as="geometry" />
        </mxCell>
        <mxCell id="ybxK3nhDi52jIhjer_VF-40" value="Nhân viên&lt;div&gt;bán hàng&lt;/div&gt;" style="shape=umlActor;verticalLabelPosition=bottom;verticalAlign=top;html=1;outlineConnect=0;" vertex="1" parent="1">
          <mxGeometry x="660" y="370" width="30" height="60" as="geometry" />
        </mxCell>
        <mxCell id="ybxK3nhDi52jIhjer_VF-41" value="Xem thông tin&amp;nbsp;&lt;div&gt;đơn hàng&lt;/div&gt;" style="ellipse;whiteSpace=wrap;html=1;" vertex="1" parent="1">
          <mxGeometry x="960" y="270" width="120" height="80" as="geometry" />
        </mxCell>
        <mxCell id="ybxK3nhDi52jIhjer_VF-42" value="Duyệt&amp;nbsp;&amp;nbsp;&lt;div&gt;đơn hàng&lt;/div&gt;" style="ellipse;whiteSpace=wrap;html=1;" vertex="1" parent="1">
          <mxGeometry x="960" y="440" width="120" height="80" as="geometry" />
        </mxCell>
        <mxCell id="ybxK3nhDi52jIhjer_VF-46" value="&amp;lt;&amp;lt;extend&amp;gt;&amp;gt;" style="html=1;verticalAlign=bottom;labelBackgroundColor=none;endArrow=open;endFill=0;dashed=1;rounded=0;exitX=0;exitY=1;exitDx=0;exitDy=0;" edge="1" parent="1" source="ybxK3nhDi52jIhjer_VF-41" target="ybxK3nhDi52jIhjer_VF-38">
          <mxGeometry width="160" relative="1" as="geometry">
            <mxPoint x="850" y="400" as="sourcePoint" />
            <mxPoint x="1010" y="400" as="targetPoint" />
          </mxGeometry>
        </mxCell>
        <mxCell id="ybxK3nhDi52jIhjer_VF-48" value="&amp;lt;&amp;lt;extend&amp;gt;&amp;gt;" style="html=1;verticalAlign=bottom;labelBackgroundColor=none;endArrow=open;endFill=0;dashed=1;rounded=0;exitX=0;exitY=0;exitDx=0;exitDy=0;entryX=1;entryY=1;entryDx=0;entryDy=0;" edge="1" parent="1" source="ybxK3nhDi52jIhjer_VF-42" target="ybxK3nhDi52jIhjer_VF-38">
          <mxGeometry width="160" relative="1" as="geometry">
            <mxPoint x="870" y="290" as="sourcePoint" />
            <mxPoint x="870" y="370" as="targetPoint" />
          </mxGeometry>
        </mxCell>
        <mxCell id="ybxK3nhDi52jIhjer_VF-51" value="Tiếp nhận đơn hàng" style="ellipse;whiteSpace=wrap;html=1;" vertex="1" parent="1">
          <mxGeometry x="1160" y="320" width="120" height="80" as="geometry" />
        </mxCell>
        <mxCell id="ybxK3nhDi52jIhjer_VF-52" value="Xem thông tin thanh toán" style="ellipse;whiteSpace=wrap;html=1;" vertex="1" parent="1">
          <mxGeometry x="1155" y="440" width="120" height="80" as="geometry" />
        </mxCell>
        <mxCell id="ybxK3nhDi52jIhjer_VF-53" value="Cập nhật thông tin thanh toán" style="ellipse;whiteSpace=wrap;html=1;" vertex="1" parent="1">
          <mxGeometry x="1160" y="560" width="120" height="80" as="geometry" />
        </mxCell>
        <mxCell id="ybxK3nhDi52jIhjer_VF-54" value="&amp;lt;&amp;lt;extend&amp;gt;&amp;gt;" style="html=1;verticalAlign=bottom;labelBackgroundColor=none;endArrow=open;endFill=0;dashed=1;rounded=0;exitX=0;exitY=1;exitDx=0;exitDy=0;entryX=1;entryY=0;entryDx=0;entryDy=0;" edge="1" parent="1" source="ybxK3nhDi52jIhjer_VF-51" target="ybxK3nhDi52jIhjer_VF-42">
          <mxGeometry width="160" relative="1" as="geometry">
            <mxPoint x="988" y="462" as="sourcePoint" />
            <mxPoint x="912" y="438" as="targetPoint" />
          </mxGeometry>
        </mxCell>
        <mxCell id="ybxK3nhDi52jIhjer_VF-55" value="&amp;lt;&amp;lt;extend&amp;gt;&amp;gt;" style="html=1;verticalAlign=bottom;labelBackgroundColor=none;endArrow=open;endFill=0;dashed=1;rounded=0;exitX=0;exitY=0.5;exitDx=0;exitDy=0;entryX=1;entryY=0.5;entryDx=0;entryDy=0;" edge="1" parent="1" source="ybxK3nhDi52jIhjer_VF-52" target="ybxK3nhDi52jIhjer_VF-42">
          <mxGeometry width="160" relative="1" as="geometry">
            <mxPoint x="1188" y="398" as="sourcePoint" />
            <mxPoint x="1072" y="462" as="targetPoint" />
          </mxGeometry>
        </mxCell>
        <mxCell id="ybxK3nhDi52jIhjer_VF-56" value="&amp;lt;&amp;lt;extend&amp;gt;&amp;gt;" style="html=1;verticalAlign=bottom;labelBackgroundColor=none;endArrow=open;endFill=0;dashed=1;rounded=0;exitX=0;exitY=0;exitDx=0;exitDy=0;entryX=1;entryY=1;entryDx=0;entryDy=0;" edge="1" parent="1" source="ybxK3nhDi52jIhjer_VF-53" target="ybxK3nhDi52jIhjer_VF-42">
          <mxGeometry width="160" relative="1" as="geometry">
            <mxPoint x="1165" y="490" as="sourcePoint" />
            <mxPoint x="1090" y="490" as="targetPoint" />
          </mxGeometry>
        </mxCell>
      </root>
    </mxGraphModel>
  </diagram>
</mxfile>
